<?xml version="1.0" encoding="UTF-8"?>
<svg version="1.1" xmlns="http://www.w3.org/2000/svg" width="558" height="558">
<path d="M0 0 C184.14 0 368.28 0 558 0 C558 184.14 558 368.28 558 558 C373.86 558 189.72 558 0 558 C0 373.86 0 189.72 0 0 Z " fill="#FEFEFE" transform="translate(0,0)"/>
<path d="M0 0 C1.32 0 2.64 0 4 0 C4 68.97 4 137.94 4 209 C26.11 209 48.22 209 71 209 C71 210.32 71 211.64 71 213 C48.89 213 26.78 213 4 213 C4 224.55 4 236.1 4 248 C2.68 248 1.36 248 0 248 C0 236.45 0 224.9 0 213 C-152.13 213 -304.26 213 -461 213 C-461 211.68 -461 210.36 -461 209 C-417.11 208.67 -373.22 208.34 -328 208 C-331.3 206.35 -334.6 204.7 -338 203 C-347.27499475 195.0934471 -351.2899898 185.97007137 -353 174 C-353 168.06 -353 162.12 -353 156 C-341.12 156 -329.24 156 -317 156 C-316.34 161.61 -315.68 167.22 -315 173 C-313.33156406 177.94113721 -311.87389908 180.84178951 -307.4375 183.5 C-301.33087583 186.063415 -294.26911228 186.12999042 -288.0625 183.8125 C-283.77255854 181.27355506 -281.57358586 178.72075759 -280 174 C-278.95189438 164.29723259 -278.95189438 164.29723259 -282.5 155.5625 C-289.47947209 148.2500218 -296.8722881 143.0534891 -305.6875 138.125 C-314.44237411 133.12335257 -322.93493078 128.06148284 -331 122 C-331.67546875 121.50757813 -332.3509375 121.01515625 -333.046875 120.5078125 C-341.68696327 113.7410177 -347.01145098 104.41771044 -350 94 C-350.19207031 93.39027344 -350.38414062 92.78054687 -350.58203125 92.15234375 C-353.01236732 79.63724864 -351.02627921 64.71290719 -344 54 C-336.44970984 43.27260755 -326.08773341 38.30402283 -313.57885742 35.58007812 C-307.46659843 34.5893743 -301.42787646 34.60680673 -295.25 34.6875 C-293.37634766 34.68266602 -293.37634766 34.68266602 -291.46484375 34.67773438 C-277.16318701 34.76079574 -263.47725194 37.54281942 -253 48 C-243.82034276 59.56476469 -244 71.37095531 -244 86 C-255.55 86 -267.1 86 -279 86 C-279.99 79.07 -279.99 79.07 -281 72 C-283.3597756 66.943338 -284.56751044 64.94544311 -289.125 61.9375 C-295.64804031 60.35934509 -301.43493059 60.76327011 -307.5 63.6875 C-311.21728869 67.12599204 -312.77633877 69.73853645 -313.28125 74.84375 C-313.5378398 83.48227314 -311.67829701 88.47537103 -306 95 C-303.32472352 97.08164236 -303.32472352 97.08164236 -300.1875 99 C-299.59783447 99.37390869 -299.00816895 99.74781738 -298.40063477 100.13305664 C-293.5129411 103.181355 -288.49275631 105.97422012 -283.45458984 108.7644043 C-265.5590784 118.68817351 -248.54700503 128.9671798 -242.45361328 149.87475586 C-241.62234802 153.76935438 -241.81540656 157.72004468 -241.8125 161.6875 C-241.80025391 162.54794922 -241.78800781 163.40839844 -241.77539062 164.29492188 C-241.74812133 176.3570422 -244.62050424 188.23803333 -253.078125 197.18359375 C-258.43812871 202.24945091 -263.11734238 205.05028959 -270 208 C-247.56 208 -225.12 208 -202 208 C-205.96 206.02 -209.92 204.04 -214 202 C-225.03182197 194.16580759 -230.10322865 181.94213706 -232.58203125 168.94921875 C-235.03360693 154.22212744 -235.21392975 139.5374595 -235.24023438 124.64575195 C-235.2499278 121.33714533 -235.28103065 118.02916449 -235.3125 114.72070312 C-235.42546293 91.80413946 -233.88973424 65.48699817 -217.19140625 47.96484375 C-204.95008272 36.9891116 -190.24969019 34.81213629 -174.4375 34.6875 C-173.23802734 34.65849609 -172.03855469 34.62949219 -170.80273438 34.59960938 C-156.44373356 34.49887165 -142.38936946 38.65250609 -131.75 48.5625 C-120.01198811 60.98338365 -119 73.30989817 -119 90 C-130.88 90 -142.76 90 -155 90 C-155.33 85.38 -155.66 80.76 -156 76 C-158.67719248 69.11579076 -160.3487689 65.50516757 -167 62 C-169.85276437 61.63806086 -172.234226 61.48063586 -175.0625 61.5625 C-175.75666016 61.55541016 -176.45082031 61.54832031 -177.16601562 61.54101562 C-181.61378228 61.59592632 -184.46295884 62.29710565 -188 65 C-197.12133659 75.99925883 -197.31213546 92.9764947 -197.265625 106.55078125 C-197.26753845 107.80779343 -197.2694519 109.0648056 -197.27142334 110.35990906 C-197.27311931 113.67328036 -197.26516929 116.98645888 -197.25390625 120.29980469 C-197.25001141 122.30662102 -197.2538855 124.31326171 -197.26074219 126.32006836 C-198.73952915 155.68429652 -198.73952915 155.68429652 -188 182 C-181.76567071 186.95351411 -174.6212033 186.66602276 -167 186 C-164.25388721 185.4880864 -161.68838026 184.78207426 -159 184 C-157.68 184 -156.36 184 -155 184 C-155 171.46 -155 158.92 -155 146 C-161.27 146 -167.54 146 -174 146 C-174 137.09 -174 128.18 -174 119 C-155.85 119 -137.7 119 -119 119 C-119 148.04 -119 177.08 -119 207 C-121.97 207.33 -124.94 207.66 -128 208 C-113.81 208 -99.62 208 -85 208 C-88.3 206.35 -91.6 204.7 -95 203 C-104.56668318 194.95069104 -107.88134661 184.97039167 -110 173 C-110 167.39 -110 161.78 -110 156 C-98.12 156 -86.24 156 -74 156 C-73.34 161.61 -72.68 167.22 -72 173 C-70.30564046 177.5572429 -69.3011025 179.99164556 -65.5 182.9375 C-58.85840488 185.76017793 -51.39708412 186.17353815 -44.5625 183.8125 C-39.73752772 180.39971473 -37.87881698 177.42490301 -36.625 171.6875 C-35.83572463 166.45150356 -36.12216087 162.9506668 -38 158 C-40.0115195 155.19195735 -40.0115195 155.19195735 -42 153 C-42 152.34 -42 151.68 -42 151 C-42.5657373 150.73654785 -43.13147461 150.4730957 -43.71435547 150.20166016 C-46.1762485 148.9073387 -48.31999669 147.40738057 -50.5703125 145.7734375 C-55.82705568 142.04999134 -61.29038525 138.82629035 -66.875 135.625 C-75.01373655 130.8763265 -82.78359621 126.09563109 -90 120 C-90.80308594 119.34386719 -91.60617187 118.68773437 -92.43359375 118.01171875 C-101.63046888 109.77640561 -107.47918385 97.83384324 -108.203125 85.5546875 C-108.38072543 71.61305414 -105.77787423 61.18532183 -97.75 49.8125 C-87.14507445 38.96655341 -73.03266927 35.10282402 -58.22265625 34.69921875 C-55.83597785 34.68480169 -53.44921318 34.68103194 -51.0625 34.6875 C-49.87720703 34.67138672 -48.69191406 34.65527344 -47.47070312 34.63867188 C-33.98016754 34.63127169 -20.65977652 37.30308218 -10.625 46.875 C-5.35142446 52.54196726 -3.16956311 57.40652912 -1 65 C-0.67 43.55 -0.34 22.1 0 0 Z " fill="#848484" transform="translate(473,154)"/>
<path d="M0 0 C1.18529297 -0.01611328 2.37058594 -0.03222656 3.59179688 -0.04882812 C17.08233246 -0.05622831 30.40272348 2.61558218 40.4375 12.1875 C50.32633578 22.89211498 51.52424605 35.31760035 51.40307617 49.43457031 C51.40222764 50.80578086 51.40270945 52.17699276 51.40440369 53.54820251 C51.40525625 57.23138156 51.38775209 60.91426102 51.36668181 64.5973711 C51.34779009 68.46103668 51.34615481 72.32471089 51.34260559 76.18841553 C51.33332152 83.48731221 51.30875763 90.78607235 51.27855712 98.0849092 C51.24489908 106.40181764 51.22849858 114.71873298 51.21347082 123.03569269 C51.18220433 140.12804047 51.12951552 157.22025574 51.0625 174.3125 C40.44806332 174.45208312 29.83384825 174.55841524 19.21867752 174.62337303 C14.28851948 174.65456425 9.35899356 174.69681126 4.42919922 174.76513672 C-0.33655172 174.83076833 -5.1016982 174.86629765 -9.86786652 174.88176346 C-11.67783359 174.8927718 -13.48777101 174.91426725 -15.29747772 174.94688034 C-27.24057429 175.15337016 -37.08739169 174.58552078 -46.38665771 166.06967163 C-58.73014746 153.23668158 -58.9375 138.83502022 -58.9375 121.3125 C-47.0575 121.3125 -35.1775 121.3125 -22.9375 121.3125 C-22.2775 126.9225 -21.6175 132.5325 -20.9375 138.3125 C-19.24314046 142.8697429 -18.2386025 145.30414556 -14.4375 148.25 C-7.79590488 151.07267793 -0.33458412 151.48603815 6.5 149.125 C11.32497228 145.71221473 13.18368302 142.73740301 14.4375 137 C15.22677537 131.76400356 14.94033913 128.2631668 13.0625 123.3125 C11.0509805 120.50445735 11.0509805 120.50445735 9.0625 118.3125 C9.0625 117.6525 9.0625 116.9925 9.0625 116.3125 C8.4967627 116.04904785 7.93102539 115.7855957 7.34814453 115.51416016 C4.8862515 114.2198387 2.74250331 112.71988057 0.4921875 111.0859375 C-4.76455568 107.36249134 -10.22788525 104.13879035 -15.8125 100.9375 C-23.95123655 96.1888265 -31.72109621 91.40813109 -38.9375 85.3125 C-39.74058594 84.65636719 -40.54367187 84.00023437 -41.37109375 83.32421875 C-50.56796888 75.08890561 -56.41668385 63.14634324 -57.140625 50.8671875 C-57.31822543 36.92555414 -54.71537423 26.49782183 -46.6875 15.125 C-34.0084273 2.15776656 -17.33546453 -0.04697958 0 0 Z " fill="#848484" transform="translate(421.9375,188.6875)"/>
<path d="M0 0 C1.19947266 -0.02900391 2.39894531 -0.05800781 3.63476562 -0.08789062 C17.99376644 -0.18862835 32.04813054 3.96500609 42.6875 13.875 C54.42551189 26.29588365 55.4375 38.62239817 55.4375 55.3125 C43.5575 55.3125 31.6775 55.3125 19.4375 55.3125 C19.1075 50.6925 18.7775 46.0725 18.4375 41.3125 C15.76030752 34.42829076 14.0887311 30.81766757 7.4375 27.3125 C4.58473563 26.95056086 2.203274 26.79313586 -0.625 26.875 C-1.31916016 26.86791016 -2.01332031 26.86082031 -2.72851562 26.85351562 C-7.17628228 26.90842632 -10.02545884 27.60960565 -13.5625 30.3125 C-22.68383659 41.31175883 -22.87463546 58.2889947 -22.828125 71.86328125 C-22.83003845 73.12029343 -22.8319519 74.3773056 -22.83392334 75.67240906 C-22.83561931 78.98578036 -22.82766929 82.29895888 -22.81640625 85.61230469 C-22.81251141 87.61912102 -22.8163855 89.62576171 -22.82324219 91.63256836 C-24.30202915 120.99679652 -24.30202915 120.99679652 -13.5625 147.3125 C-7.32817071 152.26601411 -0.1837033 151.97852276 7.4375 151.3125 C10.18361279 150.8005864 12.74911974 150.09457426 15.4375 149.3125 C16.7575 149.3125 18.0775 149.3125 19.4375 149.3125 C19.4375 136.7725 19.4375 124.2325 19.4375 111.3125 C13.1675 111.3125 6.8975 111.3125 0.4375 111.3125 C0.4375 102.4025 0.4375 93.4925 0.4375 84.3125 C18.5875 84.3125 36.7375 84.3125 55.4375 84.3125 C55.4375 113.3525 55.4375 142.3925 55.4375 172.3125 C45.11236705 173.68918439 35.49520927 174.64124381 25.17578125 174.68359375 C23.7686506 174.69260134 22.36152069 174.7017236 20.95439148 174.71095276 C18.03426823 174.72725772 15.11425718 174.73511015 12.1940918 174.73803711 C8.48584614 174.7434439 4.77867759 174.78129673 1.07073689 174.82678127 C-1.82495354 174.85675318 -4.72038855 174.86376476 -7.61622047 174.86476326 C-9.636727 174.87090383 -11.65712168 174.90022405 -13.67741394 174.93028259 C-26.0710056 174.87012025 -36.6411823 171.12740039 -45.5625 162.3125 C-50.30231303 156.6183622 -53.1328937 150.25896529 -55.5625 143.3125 C-55.90667969 142.34828125 -56.25085938 141.3840625 -56.60546875 140.390625 C-57.55668549 137.33120135 -58.1486814 134.41611778 -58.625 131.25 C-58.78097656 130.24839844 -58.93695313 129.24679687 -59.09765625 128.21484375 C-60.61678335 115.46183556 -60.78006923 102.78955612 -60.80273438 89.95825195 C-60.8124278 86.64964533 -60.84353065 83.34166449 -60.875 80.03320312 C-60.98796293 57.11663946 -59.45223424 30.79949817 -42.75390625 13.27734375 C-30.51258272 2.3016116 -15.81219019 0.12463629 0 0 Z " fill="#848484" transform="translate(298.5625,188.6875)"/>
<path d="M0 0 C1.32 0 2.64 0 4 0 C4 68.97 4 137.94 4 209 C26.11 209 48.22 209 71 209 C71 210.32 71 211.64 71 213 C48.89 213 26.78 213 4 213 C4 224.55 4 236.1 4 248 C2.68 248 1.36 248 0 248 C0 236.45 0 224.9 0 213 C-152.13 213 -304.26 213 -461 213 C-461 211.68 -461 210.36 -461 209 C-308.87 209 -156.74 209 0 209 C0 140.03 0 71.06 0 0 Z " fill="#FE6600" transform="translate(473,154)"/>
<path d="M0 0 C5.27376904 4.13111908 7.51956319 9.22618402 8.421875 15.77734375 C8.421875 18.41734375 8.421875 21.05734375 8.421875 23.77734375 C19.971875 23.77734375 31.521875 23.77734375 43.421875 23.77734375 C43.421875 44.56734375 43.421875 65.35734375 43.421875 86.77734375 C41.421875 83.77734375 41.421875 83.77734375 40.296875 80.21484375 C34.03944008 63.30118302 16.3032244 54.70002546 1.421875 46.77734375 C-23.4976126 33.50625377 -23.4976126 33.50625377 -27.578125 21.77734375 C-28.39253737 16.28923159 -28.52179572 10.84416716 -26.015625 5.77734375 C-19.68853067 -2.00984928 -9.35417667 -4.43614742 0 0 Z " fill="#FDFDFD" transform="translate(429.578125,216.22265625)"/>
<path d="M0 0 C0.33 0 0.66 0 1 0 C1 10.23 1 20.46 1 31 C-8.57 31 -18.14 31 -28 31 C-24.90738779 27.90738779 -20.96676859 26.49478957 -17.04296875 24.6328125 C-8.47654549 20.03619514 -4.16140109 12.94123534 -1.125 3.875 C-0.73729043 2.5870912 -0.35707252 1.29673706 0 0 Z " fill="#FCF8F5" transform="translate(472,332)"/>
</svg>
