<?xml version="1.0" encoding="UTF-8"?>
<svg version="1.1" xmlns="http://www.w3.org/2000/svg" width="660" height="624">
<path d="M0 0 C217.8 0 435.6 0 660 0 C660 205.92 660 411.84 660 624 C442.2 624 224.4 624 0 624 C0 418.08 0 212.16 0 0 Z " fill="#FEFEFE" transform="translate(0,0)"/>
<path d="M0 0 C2.69420057 1.85885336 4.97572126 4.09152958 7.3125 6.375 C7.98619629 7.00825195 8.65989258 7.64150391 9.35400391 8.29394531 C13.08611568 11.86976192 16.06670024 15.38721997 18.875 19.75 C21.4135696 23.14582077 22.60273699 23.9044609 26.80078125 24.9140625 C29.75374225 25.28452366 32.70584863 25.48117055 35.67578125 25.66015625 C50.0333981 26.54861481 63.4429668 34.62286796 76 41 C73.71800399 43.57550032 71.62557955 44.79852625 68.4375 46.0625 C67.65246094 46.38347656 66.86742187 46.70445312 66.05859375 47.03515625 C56.97452614 49.90075612 48.1495945 50.3403408 38.68359375 50.390625 C33.16276498 50.42909015 33.16276498 50.42909015 28.3984375 52.9140625 C26.40124162 55.89312005 25.83044687 57.81877904 25.53515625 61.359375 C25.41817383 62.66261719 25.41817383 62.66261719 25.29882812 63.9921875 C25.14263357 65.81488755 24.98894275 67.63780408 24.83789062 69.4609375 C24.40327662 74.25229193 23.78758003 78.48243373 22 83 C21.34 83 20.68 83 20 83 C19.45730469 81.96359375 18.91460937 80.9271875 18.35546875 79.859375 C17.63299391 78.48948764 16.91032757 77.11970127 16.1875 75.75 C15.83107422 75.06808594 15.47464844 74.38617188 15.10742188 73.68359375 C13.60986197 70.85334292 12.21256838 68.26582625 10.20703125 65.7578125 C9 64 9 64 9.5 60.125 C12.36105927 49.43552087 16.63295847 39.14640287 21 29 C14.09263973 35.69804632 8.05138131 43.100648 2.015625 50.58203125 C1.35046875 51.37996094 0.6853125 52.17789063 0 53 C-0.43441406 53.598125 -0.86882812 54.19625 -1.31640625 54.8125 C-4.10227467 56.77747448 -6.85983175 56.2790872 -10.1875 56.1875 C-11.45980469 56.16042969 -12.73210937 56.13335937 -14.04296875 56.10546875 C-15.01878906 56.07066406 -15.99460938 56.03585937 -17 56 C-16.36771484 55.16855469 -16.36771484 55.16855469 -15.72265625 54.3203125 C-15.17480469 53.59585938 -14.62695312 52.87140625 -14.0625 52.125 C-13.51722656 51.40570313 -12.97195312 50.68640625 -12.41015625 49.9453125 C-8.8809724 45.07679849 -9.38871486 39.8137119 -10 34 C-11.13960961 30.37396943 -12.49835397 26.87924871 -13.87109375 23.3359375 C-15.92329486 17.27164772 -16.16368922 12.41689299 -13.375 6.625 C-9.56670839 2.41583558 -5.90540833 -1.06764444 0 0 Z " fill="#CD3038" transform="translate(212,213)"/>
<path d="M0 0 C5.61 0 11.22 0 17 0 C17.33 9.24 17.66 18.48 18 28 C19.794375 25.793125 21.58875 23.58625 23.4375 21.3125 C24.04078125 20.58321289 24.6440625 19.85392578 25.265625 19.10253906 C27.87713362 15.89585708 30.21363641 12.81851492 32.0625 9.109375 C33.9684305 5.40986149 35.67559738 2.64381625 39 0 C45.87155729 -1.5518198 53.0629202 -0.80178258 60 0 C60 2 60 2 57.8203125 4.25 C56.42425781 5.61125 56.42425781 5.61125 55 7 C53.26835005 8.98519371 51.56072767 10.97694128 49.875 13 C46.89431371 16.57300216 43.90413382 20.12661677 40.8046875 23.59765625 C40.29309082 24.17837891 39.78149414 24.75910156 39.25439453 25.35742188 C38.26784123 26.47557966 37.27167201 27.58534191 36.26513672 28.68554688 C34.74505992 30.3667517 34.74505992 30.3667517 33 33 C33.34796001 36.14839514 34.49413077 37.90334864 36.58984375 40.21484375 C37.12230713 40.81240479 37.65477051 41.40996582 38.20336914 42.02563477 C38.77563232 42.65655029 39.34789551 43.28746582 39.9375 43.9375 C47.56219615 52.53121404 54.696385 61.38019752 61 71 C42.55695133 72.62526866 42.55695133 72.62526866 37.10546875 69.16015625 C35.07870969 66.54724691 33.54781951 63.92019349 32 61 C30.65002551 59.10690231 29.27464671 57.2316742 27.875 55.375 C27.27429688 54.53710938 26.67359375 53.69921875 26.0546875 52.8359375 C23.41365662 49.19071237 20.70887169 45.59496172 18 42 C17.98541748 42.57443848 17.97083496 43.14887695 17.95581055 43.74072266 C17.88086275 46.36945696 17.78436006 48.99698552 17.6875 51.625 C17.66494141 52.52863281 17.64238281 53.43226563 17.61914062 54.36328125 C17.4084466 59.61147775 16.91366476 63.46043836 14 68 C9.41238067 72.15753001 6.40877163 72 0 72 C0 48.24 0 24.48 0 0 Z " fill="#CC2F37" transform="translate(150,289)"/>
<path d="M0 0 C-0.99247337 4.44249986 -2.75957715 7.75957715 -6 11 C-7.84765625 11.28710938 -7.84765625 11.28710938 -10.0625 11.34375 C-10.85914063 11.37339844 -11.65578125 11.40304687 -12.4765625 11.43359375 C-14.15885417 11.47786458 -15.84114583 11.52213542 -17.5234375 11.56640625 C-18.32007812 11.59605469 -19.11671875 11.62570312 -19.9375 11.65625 C-20.66839844 11.67494141 -21.39929688 11.69363281 -22.15234375 11.71289062 C-24.24545258 11.85202177 -24.24545258 11.85202177 -26 14 C-26.58402133 16.41417872 -26.58402133 16.41417872 -26 19 C-22.42165199 22.33225345 -18.60167706 24.27331567 -14.1875 26.3125 C-6.50048116 30.00684931 0.09771065 34.18391013 4 42 C4.94312934 47.6980731 4.89920434 53.30198168 1.9375 58.375 C-3.02296067 65.0584218 -8.68962263 69.54688488 -17 71 C-27.55326245 71.96698446 -37.43445825 70.78277087 -47 66 C-46.46515599 60.65155992 -44.53309233 56.64203897 -42 52 C-40.5410574 52.47730838 -39.08286504 52.95691042 -37.625 53.4375 C-36.81289062 53.70433594 -36.00078125 53.97117187 -35.1640625 54.24609375 C-33 55 -33 55 -31 56 C-28.66990544 56.14848642 -26.3346445 56.22129535 -24 56.25 C-22.741875 56.27578125 -21.48375 56.3015625 -20.1875 56.328125 C-19.135625 56.21984375 -18.08375 56.1115625 -17 56 C-14.70986347 52.5647952 -14.82157027 51.014669 -15 47 C-15.64026123 46.66790527 -16.28052246 46.33581055 -16.94018555 45.99365234 C-19.86327134 44.46766659 -22.77527519 42.92160527 -25.6875 41.375 C-26.69490234 40.85292969 -27.70230469 40.33085937 -28.74023438 39.79296875 C-35.47652716 36.19138647 -41.34106338 32.57218907 -44 25 C-44.82445464 18.56291181 -45.37429035 11.9436246 -41.5 6.4375 C-30.33504301 -5.92086095 -14.6866948 -4.59472016 0 0 Z " fill="#CE343B" transform="translate(137,291)"/>
<path d="M0 0 C11.07238568 -1.12983527 21.77244524 4.09702301 31.375 9.125 C32.023479 9.46144531 32.67195801 9.79789063 33.34008789 10.14453125 C37.87414666 12.62243997 37.87414666 12.62243997 39 16 C38.113125 16.391875 37.22625 16.78375 36.3125 17.1875 C32.77745107 19.12177206 30.5416166 20.87744246 28 24 C27.06845374 26.83668535 27.06845374 26.83668535 27 30 C26.87625 31.216875 26.7525 32.43375 26.625 33.6875 C26.65249281 38.45292074 28.68495684 42.20599766 30.80859375 46.38671875 C33.17892912 51.58591338 34.04591857 57.41702221 32.421875 62.98046875 C29.88057478 68.95252426 25.48410898 72.6689831 20 76 C16.34076508 77.229056 12.84094761 77.07386438 9 77 C7.57749957 72.37344211 6.63663017 68.04373132 6.13037109 63.21020508 C5.92037979 61.24830986 5.92037979 61.24830986 5.70614624 59.2467804 C5.56171535 57.83771728 5.41748384 56.42863373 5.2734375 55.01953125 C5.11983859 53.55933109 4.96574726 52.09918265 4.81118774 50.63908386 C4.48979546 47.5909079 4.17246201 44.54234784 3.85839844 41.4934082 C3.45614783 37.58893504 3.04662325 33.68526998 2.63443565 29.7818346 C2.31688799 26.77173476 2.00170945 23.76139101 1.687397 20.75095177 C1.53707343 19.31122464 1.38635815 17.87153835 1.23524094 16.4318943 C1.02492306 14.42202734 0.81781003 12.41182579 0.61083984 10.40161133 C0.49251801 9.2591243 0.37419617 8.11663727 0.25228882 6.93952942 C0 4 0 4 0 0 Z " fill="#E18437" transform="translate(167,195)"/>
<path d="M0 0 C3.25167241 1.27719617 5.83214053 3.28924762 8.5625 5.4375 C9.32691406 6.03433594 10.09132813 6.63117188 10.87890625 7.24609375 C14.77025747 10.46380406 14.77025747 10.46380406 16 12 C16 13.32 16 14.64 16 16 C11.70955868 18.00263386 7.41775702 20.00233553 3.125 22 C2.48574585 22.29756195 1.8464917 22.5951239 1.18786621 22.90170288 C-7.12828395 26.77016274 -15.46984486 30.56759367 -23.87426758 34.2409668 C-29.54166547 36.74091676 -35.04830292 39.51462854 -40.56152344 42.33520508 C-45.28648346 44.72243258 -49.91642862 46.54755103 -55 48 C-56.11328125 46.22387695 -56.11328125 46.22387695 -57 44 C-56.35546875 42.23510742 -56.35546875 42.23510742 -55.1875 40.41796875 C-52.03725978 34.71344399 -52.17013105 28.89776168 -51.8671875 22.51367188 C-51.60716583 18.58790998 -51.21946074 15.51037381 -49.65625 11.875 C-45.29349319 8.79540696 -40.69242138 9.56661085 -35.5 9.6875 C-22.09711999 9.63283023 -11.83863592 5.91931796 0 0 Z " fill="#E18436" transform="translate(291,257)"/>
<path d="M0 0 C2.97 0 5.94 0 9 0 C10.40217639 3.35359237 11.800201 6.70889209 13.1953125 10.06542969 C13.74923467 11.39712849 14.30396912 12.72848963 14.859375 14.05957031 C18.11709461 21.87166766 21.28749529 29.67103364 24.1015625 37.65625 C24.95797594 39.89037202 25.94664626 41.9482508 27.0625 44.0625 C29.40661584 48.51909968 30.65498443 53.15794395 32 58 C28.04 58 24.08 58 20 58 C16 47.375 16 47.375 16 44 C8.74 44 1.48 44 -6 44 C-6.99 47.3 -7.98 50.6 -9 54 C-11.2579403 56.70952836 -12.57301319 57.84616127 -16.1015625 58.2265625 C-18.06904765 58.24741923 -20.03691068 58.1330908 -22 58 C-21.31620772 53.94226383 -20.09058078 50.29505007 -18.63671875 46.44921875 C-18.4034639 45.83158157 -18.17020905 45.2139444 -17.92988586 44.57759094 C-17.43672067 43.27503209 -16.94158071 41.97321939 -16.44458008 40.67211914 C-15.69462409 38.70617517 -14.95334648 36.73711679 -14.21289062 34.76757812 C-12.01892239 28.97285109 -9.77798854 23.2902697 -6.89575195 17.80004883 C-5.24159249 14.47595023 -4.01539963 10.98630511 -2.75 7.5 C-2.481875 6.77296875 -2.21375 6.0459375 -1.9375 5.296875 C-1.28756176 3.53275692 -0.6431775 1.76659419 0 0 Z " fill="#E18344" transform="translate(556,304)"/>
<path d="M0 0 C3.75580059 0.2620326 5.75858464 0.82546112 8.83959961 3.05297852 C11.57206533 6.78035943 11.66507066 9.70533114 11.56640625 14.15234375 C11.57204086 14.93009659 11.57767548 15.70784943 11.58348083 16.50917053 C11.59989123 18.98589871 11.58443019 21.46083488 11.5625 23.9375 C11.54586109 26.41042816 11.53687496 28.88217042 11.55223083 31.3551178 C11.56145112 32.88998313 11.55254572 34.42510069 11.52259827 35.95970154 C11.54882811 41.11864315 12.73109974 44.03494153 16 48 C20.44908092 50.22454046 26.18396007 49.65049362 31 49 C34.09791089 46.9660181 35.35778714 44.28442572 37 41 C37.15733249 38.01236645 37.25861415 35.04458849 37.31640625 32.0546875 C37.33718735 31.1696756 37.35796844 30.2846637 37.37937927 29.37283325 C37.44486598 26.54030259 37.50375562 23.70767775 37.5625 20.875 C37.60568606 18.95702143 37.64930037 17.03905246 37.69335938 15.12109375 C37.80054647 10.41415949 37.9018164 5.70713033 38 1 C41.63 1 45.26 1 49 1 C49.09947326 6.67418403 49.17175249 12.3478515 49.21972656 18.02270508 C49.23974243 19.94987845 49.26696383 21.87699186 49.30175781 23.80395508 C49.35072041 26.58690252 49.37306917 29.36904156 49.390625 32.15234375 C49.41127014 33.00271713 49.43191528 33.85309052 49.45318604 34.72923279 C49.45569493 41.54010076 47.97034874 47.73947897 43.27886963 52.88926697 C36.20382501 59.51241162 28.25882831 59.53827497 19.08203125 59.30078125 C14.32169515 59.03901124 10.56803334 58.33840743 7 55 C2.90067734 49.97560895 -0.13293402 45.33050134 -0.11352539 38.7121582 C-0.11344986 37.85149246 -0.11337433 36.99082672 -0.11329651 36.1040802 C-0.10813522 35.17899155 -0.10297394 34.25390289 -0.09765625 33.30078125 C-0.0962413 32.35059616 -0.09482635 31.40041107 -0.09336853 30.4214325 C-0.08776875 27.38508971 -0.07521632 24.34882052 -0.0625 21.3125 C-0.05748497 19.25455836 -0.05292207 17.19661556 -0.04882812 15.13867188 C-0.0377994 10.09241954 -0.02053493 5.04622225 0 0 Z " fill="#E28344" transform="translate(437,303)"/>
<path d="M0 0 C4.06662662 1.55271198 5.57519602 2.36279402 8 6 C8.47128944 10.79144265 8.51298393 13.0289947 6.25 17.3125 C4.28627634 19.65805882 2.55931192 21.35472805 0 23 C0.60213096 26.14215467 1.61293869 28.10334521 3.5625 30.625 C6 33.78753541 6 33.78753541 6 36 C6.763125 35.195625 7.52625 34.39125 8.3125 33.5625 C11 31 11 31 14 30 C16.6875 31.4375 16.6875 31.4375 19 33 C18.02003892 35.71373838 17.15033127 37.81626178 15.3125 40.0625 C13.76321794 41.8910982 13.76321794 41.8910982 14.25 44 C14.4975 44.66 14.745 45.32 15 46 C15.33333333 47.33333333 15.66666667 48.66666667 16 50 C11.61931146 52.19034427 6.6127489 50.92254978 2 50 C1.01 50.495 1.01 50.495 0 51 C-5.88458765 51.49580089 -11.21095619 51.83283074 -16.625 49.3125 C-20.81728439 45.23053889 -22.20197245 42.48156978 -22.5625 36.625 C-22.44372154 31.45464352 -21.10310666 28.8722188 -17.5078125 25.2421875 C-16 24 -16 24 -14 23 C-14.34224609 22.1646875 -14.34224609 22.1646875 -14.69140625 21.3125 C-16.81199262 15.6829613 -17.56481858 11.86806968 -16 6 C-11.09355853 0.087109 -7.38177581 -0.70716172 0 0 Z " fill="#E3883C" transform="translate(339,310)"/>
<path d="M0 0 C-0.375 2.4375 -0.375 2.4375 -1 5 C-3.23647631 6.11823815 -4.64891529 6.19396061 -7.1328125 6.31640625 C-8.34130859 6.37924805 -8.34130859 6.37924805 -9.57421875 6.44335938 C-10.41597656 6.48267578 -11.25773438 6.52199219 -12.125 6.5625 C-12.97449219 6.60568359 -13.82398438 6.64886719 -14.69921875 6.69335938 C-16.79928223 6.79954236 -18.89961948 6.90028497 -21 7 C-21.46626397 11.93368561 -21.46626397 11.93368561 -19.3671875 16.22265625 C-16.71866814 18.21123102 -14.02629029 19.83920649 -11.125 21.4375 C-0.16248933 27.67502133 -0.16248933 27.67502133 2 32 C2.60591318 38.37374058 2.22878778 43.43312451 -1 49 C-5.91848868 53.91848868 -11.42380815 55.2909336 -18.25 55.375 C-24.54177462 55.30276378 -29.41905648 53.82196692 -35 51 C-34.32084333 46.68914241 -33.3222714 44.89359122 -30 42 C-29.30132812 42.48855469 -28.60265625 42.97710937 -27.8828125 43.48046875 C-24.58807852 45.21712393 -22.57071787 45.37270593 -18.875 45.3125 C-17.32425781 45.30669922 -17.32425781 45.30669922 -15.7421875 45.30078125 C-12.78521111 45.18951532 -12.78521111 45.18951532 -10 43 C-8.99765814 39.67405245 -8.99765814 39.67405245 -10 36 C-13.38784415 32.77916225 -17.6051556 30.75934761 -21.68359375 28.5390625 C-27.37560379 25.34206429 -30.71073414 23.24345233 -33 17 C-33.78398294 12.66009442 -34.01811773 8.86538694 -31.859375 4.91015625 C-23.55283896 -5.42929519 -11.42726149 -4.84792912 0 0 Z " fill="#E18242" transform="translate(527,307)"/>
<path d="M0 0 C-0.57344937 2.86724686 -0.8614515 3.8614515 -3 6 C-4.875 6.23046875 -4.875 6.23046875 -7 6.1875 C-7.70125 6.18105469 -8.4025 6.17460937 -9.125 6.16796875 C-11 6 -11 6 -13 5 C-17.70697417 4.42574915 -21.12144792 4.54445448 -25.375 6.75 C-29.40405369 10.20347459 -31.75896864 13.04736579 -32.203125 18.48828125 C-32.32681725 25.94073933 -31.47972169 30.07520005 -26.5625 35.875 C-22.06868865 39.37769507 -16.37760003 38.5803694 -11 38 C-7.44457748 37.15697007 -7.44457748 37.15697007 -5 36 C-1 40.625 -1 40.625 -1 44 C-9.92401669 47.52761131 -21.32922631 49.47887804 -30.4375 45.5625 C-36.12802795 42.05105825 -40.71399252 36.78634954 -43.5 30.75 C-44.53603608 22.97972943 -45.57845855 14.77026818 -41.39453125 7.77734375 C-30.29750223 -6.36592853 -15.69813825 -6.33582517 0 0 Z " fill="#E3873A" transform="translate(409,314)"/>
<path d="M0 0 C-0.57344937 2.86724686 -0.8614515 3.8614515 -3 6 C-9.32258065 6.33870968 -9.32258065 6.33870968 -12 5 C-16.9252115 4.45964406 -20.86941718 4.45564531 -25.375 6.625 C-30.47106153 11.23572234 -32.27425251 14.47962329 -32.625 21.375 C-32.45791648 26.99800316 -31.32008014 30.24626912 -27.703125 34.51171875 C-23.76852089 37.94998519 -20.51814632 38.30393315 -15.4609375 38.203125 C-11.54239941 37.87969011 -7.79425186 37.0046246 -4 36 C-1 40.625 -1 40.625 -1 44 C-9.58082927 47.61298074 -18.96038105 48.8330361 -28.01171875 46.0859375 C-34.85689283 42.91403322 -38.3906033 39.16329697 -41.8125 32.4375 C-44.56050204 24.17770077 -43.95234708 15.01723875 -40.328125 7.15625 C-37.34929974 2.32003958 -32.60873783 -1.51459545 -27.26953125 -3.52734375 C-17.71279554 -5.51764499 -8.60439152 -4.53502047 0 0 Z " fill="#E3873B" transform="translate(311,314)"/>
<path d="M0 0 C5.61 0 11.22 0 17 0 C17.33 9.9 17.66 19.8 18 30 C17.34 30 16.68 30 16 30 C16 20.76 16 11.52 16 2 C11.38 2 6.76 2 2 2 C2 24.77 2 47.54 2 71 C4.64 70.67 7.28 70.34 10 70 C7 72 7 72 0 72 C0 48.24 0 24.48 0 0 Z " fill="#DC6167" transform="translate(150,289)"/>
<path d="M0 0 C0.66 0 1.32 0 2 0 C1 3 1 3 -1 5 C-2.03008607 6.15850529 -3.05014607 7.32596792 -4.0625 8.5 C-4.58972656 9.1084375 -5.11695313 9.716875 -5.66015625 10.34375 C-8.42737492 13.7644518 -8.37951326 16.68389713 -8.3671875 20.9609375 C-7.93216036 24.56148131 -6.82396374 27.50151047 -5.5 30.875 C-3.04841613 37.25468985 -1.73415623 43.18554104 -3 50 C-4.34375 52.3359375 -4.34375 52.3359375 -6 54 C-6.99 54 -7.98 54 -9 54 C-8.67 52.989375 -8.34 51.97875 -8 50.9375 C-5.58479814 42.26709908 -7.96415183 35.2979017 -11.6875 27.4375 C-14.05431725 21.23869292 -13.66162694 15.09956173 -11 9 C-8.5750057 6.32883997 -6.02662722 3.97180268 -3 2 C-2.01 2 -1.02 2 0 2 C0 1.34 0 0.68 0 0 Z " fill="#FAECE8" transform="translate(206,209)"/>
<path d="M0 0 C3.37538004 1.68769002 3.90150506 5.55093626 5.125 8.9375 C5.40214844 9.67935547 5.67929687 10.42121094 5.96484375 11.18554688 C8 16.71455511 8 16.71455511 8 19 C3.38 19 -1.24 19 -6 19 C-5.25966102 14.55796611 -4.42405836 10.89161346 -3 6.6875 C-2.649375 5.63949219 -2.29875 4.59148437 -1.9375 3.51171875 C-1 1 -1 1 0 0 Z " fill="#FCF4EE" transform="translate(560,320)"/>
<path d="M0 0 C-1 3 -1 3 -3.1328125 4.38671875 C-10.88107529 7.75508887 -17.72721245 8.50295515 -26.125 8.5625 C-27.65471436 8.58413208 -27.65471436 8.58413208 -29.21533203 8.60620117 C-30.17810059 8.59306885 -31.14086914 8.57993652 -32.1328125 8.56640625 C-33.43049561 8.55009155 -33.43049561 8.55009155 -34.75439453 8.53344727 C-37 8 -37 8 -38.80419922 5.96459961 C-39.39612061 4.9921228 -39.39612061 4.9921228 -40 4 C-39.41734375 3.9906543 -38.8346875 3.98130859 -38.234375 3.97167969 C-26.68280419 3.74010339 -16.03054821 3.02944794 -4.921875 -0.2578125 C-2 -1 -2 -1 0 0 Z " fill="#F7DFD8" transform="translate(283,259)"/>
<path d="M0 0 C3.76075665 1.25358555 4.47649131 2.70673887 6.6875 5.9375 C7.62142578 7.28134766 7.62142578 7.28134766 8.57421875 8.65234375 C10 11 10 11 10 13 C6.81014393 14.59492803 3.47067113 14.37616681 0 14 C-2 12.9375 -2 12.9375 -3 11 C-3.41857482 7.16306413 -3.54644269 4.88796936 -1.5 1.5625 C-1.005 1.046875 -0.51 0.53125 0 0 Z " fill="#FDF7F2" transform="translate(329,339)"/>
<path d="M0 0 C3.125 0.375 3.125 0.375 6 1 C6.25 3.25 6.25 3.25 6 6 C4 8.3125 4 8.3125 2 10 C0.68 9.34 -0.64 8.68 -2 8 C-2.125 5.125 -2.125 5.125 -2 2 C-1.34 1.34 -0.68 0.68 0 0 Z " fill="#FCF4ED" transform="translate(333,317)"/>
<path d="M0 0 C1.24733675 3.80809432 0.41041632 5.4026168 -1.29296875 8.98828125 C-2.54429462 12.54868358 -2.41538436 16.2775171 -2 20 C-1.67 20.33 -1.34 20.66 -1 21 C-0.95919217 22.99958364 -0.95745644 25.00045254 -1 27 C-0.34 27.33 0.32 27.66 1 28 C0.01 28 -0.98 28 -2 28 C-4.62528967 20.944534 -5.57890916 12.59943102 -3.1015625 5.3828125 C-2 3.1875 -2 3.1875 0 0 Z " fill="#ECA164" transform="translate(369,320)"/>
<path d="M0 0 C6.93 0 13.86 0 21 0 C21 0.66 21 1.32 21 2 C19.37373596 3.38232443 17.7074998 4.71937515 16 6 C16 4.68 16 3.36 16 2 C10.72 2 5.44 2 0 2 C0 1.34 0 0.68 0 0 Z " fill="#DC666C" transform="translate(189,289)"/>
<path d="M0 0 C2.95970455 0.28102245 5.917288 0.5742918 8.875 0.875 C10.13763672 0.99294922 10.13763672 0.99294922 11.42578125 1.11328125 C12.23144531 1.19707031 13.03710938 1.28085938 13.8671875 1.3671875 C14.61081543 1.44050293 15.35444336 1.51381836 16.12060547 1.58935547 C18 2 18 2 20 4 C18.02090602 4.02686553 16.04171029 4.04633375 14.0625 4.0625 C12.96035156 4.07410156 11.85820312 4.08570313 10.72265625 4.09765625 C8 4 8 4 7 3 C4.32941149 2.85884839 1.67567762 2.95752893 -1 3 C-0.67 2.01 -0.34 1.02 0 0 Z " fill="#DD696F" transform="translate(234,237)"/>
<path d="M0 0 C0.33 0.66 0.66 1.32 1 2 C0.67 2.66 0.34 3.32 0 4 C2.31 4.33 4.62 4.66 7 5 C7 5.33 7 5.66 7 6 C3.04 6 -0.92 6 -5 6 C-3.35 4.02 -1.7 2.04 0 0 Z " fill="#DA4C53" transform="translate(200,263)"/>
<path d="M0 0 C0.33 0 0.66 0 1 0 C3.13645572 6.66071488 2.93838047 12.10163546 2 19 C1.67 19 1.34 19 1 19 C0.17648136 12.61773055 -0.12086218 6.43255401 0 0 Z " fill="#EA9F60" transform="translate(169,209)"/>
<path d="M0 0 C1 2 1 2 0.44140625 3.9453125 C0.15136719 4.66460937 -0.13867188 5.38390625 -0.4375 6.125 C-0.72496094 6.84945312 -1.01242188 7.57390625 -1.30859375 8.3203125 C-1.53675781 8.87460938 -1.76492187 9.42890625 -2 10 C-2.66 9.34 -3.32 8.68 -4 8 C-5.98 8.99 -5.98 8.99 -8 10 C-7.04367001 8.70684939 -6.08486149 7.41553147 -5.125 6.125 C-4.59132812 5.40570313 -4.05765625 4.68640625 -3.5078125 3.9453125 C-2 2 -2 2 0 0 Z " fill="#F5DADB" transform="translate(233,240)"/>
<path d="M0 0 C1.53166168 4.08443115 0.63081652 7.79455657 0 12 C-0.66 12 -1.32 12 -2 12 C-2 8.7 -2 5.4 -2 2 C-1.34 2 -0.68 2 0 2 C0 1.34 0 0.68 0 0 Z " fill="#EEA05E" transform="translate(193,221)"/>
<path d="M0 0 C-4.51350747 3.52273754 -7.28341664 4.45732667 -13 4 C-10.56272708 2.37515139 -8.62713877 1.34310925 -5.9375 0.3125 C-5.24527344 0.04050781 -4.55304688 -0.23148437 -3.83984375 -0.51171875 C-2 -1 -2 -1 0 0 Z " fill="#EA9D5D" transform="translate(287,261)"/>
<path d="M0 0 C2 1.8125 2 1.8125 4 4 C4 4.99 4 5.98 4 7 C2.68 7.33 1.36 7.66 0 8 C0 5.33333333 0 2.66666667 0 0 Z " fill="#ECA164" transform="translate(404,351)"/>
<path d="M0 0 C-1.15173355 2.46800047 -2.04783565 4.04783565 -4 6 C-4.99 5.67 -5.98 5.34 -7 5 C-2.25 0 -2.25 0 0 0 Z " fill="#E89047" transform="translate(377,314)"/>
</svg>
